<?xml version="1.0" standalone="no"?>
<!DOCTYPE svg PUBLIC "-//W3C//DTD SVG 20010904//EN"
 "http://www.w3.org/TR/2001/REC-SVG-20010904/DTD/svg10.dtd">
<svg version="1.0" xmlns="http://www.w3.org/2000/svg"
 width="500.000000pt" height="464.000000pt" viewBox="0 0 500.000000 464.000000"
 preserveAspectRatio="xMidYMid meet">

<g transform="translate(0.000000,464.000000) scale(0.100000,-0.100000)"
fill="#000000" stroke="none">
<path d="M3160 4414 c-167 -45 -318 -240 -387 -499 -23 -87 -26 -120 -26 -250
0 -131 3 -163 26 -250 33 -121 120 -303 177 -367 75 -86 189 -91 339 -18 73
36 102 59 186 145 201 204 305 438 305 686 0 293 -152 500 -405 554 -87 18
-144 18 -215 -1z"/>
<path d="M1726 4340 c-156 -50 -262 -178 -317 -386 -30 -112 -38 -359 -15
-470 34 -171 108 -308 235 -435 58 -58 108 -98 151 -120 58 -30 74 -34 145
-34 72 0 86 3 143 34 162 88 286 306 344 606 27 142 29 332 4 425 -54 199
-193 341 -377 385 -90 21 -239 19 -313 -5z"/>
<path d="M745 3506 c-110 -35 -218 -110 -292 -204 -65 -83 -144 -239 -178
-357 -35 -119 -45 -282 -21 -373 43 -170 137 -333 266 -462 116 -116 167 -145
260 -145 57 0 73 5 125 35 124 74 293 279 346 419 68 182 65 462 -7 686 -37
113 -108 247 -166 310 -68 75 -132 105 -222 104 -39 0 -89 -6 -111 -13z"/>
<path d="M4209 3456 c-178 -50 -327 -216 -373 -416 -64 -283 16 -715 160 -867
51 -54 125 -76 233 -71 143 6 264 94 392 286 147 219 181 321 182 537 1 106
-3 156 -17 204 -49 178 -150 282 -317 326 -65 18 -197 18 -260 1z"/>
<path d="M3794 3408 c-26 -59 -122 -201 -181 -271 -105 -121 -235 -214 -351
-251 -70 -22 -74 -24 -53 -36 31 -16 95 0 186 48 141 75 319 285 396 470 32
79 35 111 3 40z"/>
<path d="M2407 3127 c-9 -17 -28 -51 -42 -74 -19 -31 -22 -43 -12 -43 13 0 84
137 75 145 -2 3 -12 -10 -21 -28z"/>
<path d="M2365 2889 c-228 -33 -471 -144 -675 -308 -295 -237 -620 -686 -728
-1006 -66 -194 -93 -415 -72 -590 48 -407 309 -607 688 -529 152 31 301 101
598 279 323 195 388 217 521 177 106 -33 183 -85 345 -237 176 -164 236 -211
338 -264 110 -57 177 -74 276 -69 115 6 189 43 281 142 115 123 187 287 218
490 38 261 -3 488 -144 780 -293 611 -808 1073 -1264 1135 -91 13 -295 12
-382 0z"/>
<path d="M4817 2471 c-109 -195 -267 -377 -377 -436 -30 -16 -95 -39 -144 -50
l-89 -22 49 -6 c163 -19 314 80 458 299 63 97 143 250 135 259 -3 2 -17 -18
-32 -44z"/>
<path d="M930 1875 c-14 -8 -48 -19 -77 -26 -64 -15 -59 -29 10 -29 58 0 69 5
86 38 16 30 12 34 -19 17z"/>
<path d="M2505 781 c-33 -15 -155 -84 -272 -154 -372 -222 -489 -269 -773
-316 -52 -8 -50 -9 45 -10 212 -2 379 63 770 300 190 115 286 164 351 181 44
11 46 13 24 19 -47 13 -85 8 -145 -20z"/>
<path d="M4156 577 c-48 -88 -136 -196 -197 -243 -76 -58 -145 -90 -244 -111
l-80 -18 43 -6 c180 -24 352 93 462 314 55 111 66 155 16 64z"/>
</g>
</svg>
